<svg width="272" height="76" viewBox="0 0 272 76" fill="none" xmlns="http://www.w3.org/2000/svg">
<path d="M40 7.375C26.1929 7.375 15 17.1688 15 29.25V33.625H20C22.7614 33.625 25 35.5838 25 38V51.125C25 53.5413 22.7614 55.5 20 55.5H15C12.2386 55.5 10 53.5413 10 51.125V29.25C10 14.7525 23.4314 3 40 3C56.5685 3 70 14.7525 70 29.25V55.5C70 61.5406 64.4035 66.4375 57.5 66.4375H46.8311C45.9666 67.7452 44.3507 68.625 42.5 68.625H37.5C34.7386 68.625 32.5 66.6663 32.5 64.25C32.5 61.8337 34.7386 59.875 37.5 59.875H42.5C44.3507 59.875 45.9666 60.7548 46.8311 62.0625H57.5C61.642 62.0625 65 59.1242 65 55.5H60C57.2385 55.5 55 53.5413 55 51.125V38C55 35.5838 57.2385 33.625 60 33.625H65V29.25C65 17.1688 53.807 7.375 40 7.375Z" fill="#087990"/>
<path d="M83.6378 53V23.9091H103.24V28.9801H89.7884V35.9119H102.232V40.983H89.7884V47.929H103.297V53H83.6378ZM113.073 31.1818L117.079 38.8097L121.184 31.1818H127.391L121.07 42.0909L127.562 53H121.383L117.079 45.4574L112.846 53H106.596L113.073 42.0909L106.823 31.1818H113.073ZM140.062 53.4261C137.827 53.4261 135.905 52.9527 134.295 52.0057C132.694 51.0492 131.463 49.7235 130.602 48.0284C129.749 46.3333 129.323 44.3826 129.323 42.1761C129.323 39.9413 129.754 37.9811 130.616 36.2955C131.487 34.6004 132.723 33.2794 134.323 32.3324C135.924 31.3759 137.827 30.8977 140.033 30.8977C141.937 30.8977 143.603 31.2434 145.033 31.9347C146.463 32.6259 147.595 33.5966 148.428 34.8466C149.262 36.0966 149.721 37.5644 149.806 39.25H144.096C143.935 38.161 143.509 37.285 142.817 36.6222C142.136 35.9498 141.241 35.6136 140.133 35.6136C139.195 35.6136 138.376 35.8693 137.675 36.3807C136.984 36.8826 136.444 37.6165 136.056 38.5824C135.668 39.5483 135.474 40.7178 135.474 42.0909C135.474 43.483 135.663 44.6667 136.042 45.642C136.43 46.6174 136.975 47.3608 137.675 47.8722C138.376 48.3835 139.195 48.6392 140.133 48.6392C140.824 48.6392 141.444 48.4972 141.994 48.2131C142.552 47.929 143.012 47.517 143.371 46.9773C143.741 46.428 143.982 45.7699 144.096 45.0028H149.806C149.711 46.6695 149.257 48.1373 148.442 49.4062C147.638 50.6657 146.525 51.6506 145.104 52.3608C143.684 53.071 142.003 53.4261 140.062 53.4261ZM163.624 53.4261C161.379 53.4261 159.447 52.9716 157.828 52.0625C156.218 51.1439 154.978 49.8466 154.107 48.1705C153.235 46.4848 152.8 44.4915 152.8 42.1903C152.8 39.946 153.235 37.9763 154.107 36.2812C154.978 34.5862 156.204 33.2652 157.786 32.3182C159.376 31.3712 161.242 30.8977 163.382 30.8977C164.821 30.8977 166.161 31.1297 167.402 31.5938C168.652 32.0483 169.741 32.7348 170.669 33.6534C171.607 34.572 172.336 35.7273 172.857 37.1193C173.377 38.5019 173.638 40.1212 173.638 41.9773V43.6392H155.214V39.8892H167.942C167.942 39.018 167.752 38.2462 167.374 37.5739C166.995 36.9015 166.469 36.3759 165.797 35.9972C165.134 35.6089 164.362 35.4148 163.482 35.4148C162.563 35.4148 161.749 35.6278 161.038 36.054C160.338 36.4706 159.788 37.0341 159.391 37.7443C158.993 38.4451 158.789 39.2263 158.78 40.0881V43.6534C158.78 44.733 158.979 45.6657 159.376 46.4517C159.784 47.2377 160.357 47.8438 161.095 48.2699C161.834 48.696 162.71 48.9091 163.723 48.9091C164.395 48.9091 165.011 48.8144 165.57 48.625C166.128 48.4356 166.607 48.1515 167.004 47.7727C167.402 47.3939 167.705 46.9299 167.913 46.3807L173.51 46.75C173.226 48.0947 172.643 49.2689 171.763 50.2727C170.892 51.267 169.765 52.0436 168.382 52.6023C167.009 53.1515 165.423 53.4261 163.624 53.4261ZM183.638 23.9091V53H177.587V23.9091H183.638ZM194.536 23.9091V53H188.485V23.9091H194.536ZM212.977 38.6534V43.4545H199.71V38.6534H212.977ZM244.98 38.4545C244.98 41.6269 244.379 44.3258 243.176 46.5511C241.983 48.7765 240.354 50.4763 238.29 51.6506C236.235 52.8153 233.924 53.3977 231.358 53.3977C228.773 53.3977 226.453 52.8106 224.398 51.6364C222.343 50.4621 220.719 48.7623 219.526 46.5369C218.332 44.3116 217.736 41.6174 217.736 38.4545C217.736 35.2822 218.332 32.5833 219.526 30.358C220.719 28.1326 222.343 26.4375 224.398 25.2727C226.453 24.0985 228.773 23.5114 231.358 23.5114C233.924 23.5114 236.235 24.0985 238.29 25.2727C240.354 26.4375 241.983 28.1326 243.176 30.358C244.379 32.5833 244.98 35.2822 244.98 38.4545ZM238.744 38.4545C238.744 36.3996 238.437 34.6667 237.821 33.2557C237.215 31.8447 236.358 30.7746 235.25 30.0455C234.142 29.3163 232.845 28.9517 231.358 28.9517C229.871 28.9517 228.574 29.3163 227.466 30.0455C226.358 30.7746 225.496 31.8447 224.881 33.2557C224.275 34.6667 223.972 36.3996 223.972 38.4545C223.972 40.5095 224.275 42.2424 224.881 43.6534C225.496 45.0644 226.358 46.1345 227.466 46.8636C228.574 47.5928 229.871 47.9574 231.358 47.9574C232.845 47.9574 234.142 47.5928 235.25 46.8636C236.358 46.1345 237.215 45.0644 237.821 43.6534C238.437 42.2424 238.744 40.5095 238.744 38.4545ZM255.474 40.3864V53H249.423V31.1818H255.19V35.0312H255.445C255.928 33.7623 256.738 32.7585 257.874 32.0199C259.011 31.2718 260.388 30.8977 262.008 30.8977C263.523 30.8977 264.844 31.2292 265.971 31.892C267.098 32.5549 267.974 33.5019 268.599 34.733C269.224 35.9545 269.536 37.4129 269.536 39.108V53H263.485V40.1875C263.495 38.8523 263.154 37.8106 262.462 37.0625C261.771 36.3049 260.819 35.9261 259.607 35.9261C258.793 35.9261 258.073 36.1013 257.448 36.4517C256.833 36.8021 256.35 37.3134 255.999 37.9858C255.658 38.6487 255.483 39.4489 255.474 40.3864Z" fill="#087990"/>
</svg>
